<svg width="85" height="73" viewBox="0 0 85 73" fill="none" xmlns="http://www.w3.org/2000/svg">
<g clip-path="url(#clip0_2_256)">
<path d="M25.0687 25.8882C25.5543 27.5275 24.3293 29.1728 22.6228 29.1728H19.4994C17.2254 29.1728 16.0883 31.925 17.695 33.5362L23.2043 39.4069C25.5783 39.9213 30.1704 40.4918 32.6063 40.778C33.2158 40.85 33.6135 40.1535 33.2458 39.6611L32.2347 38.306C31.9469 38.0178 32.1507 37.5274 32.5564 37.5274H35.7936C36.0974 37.5274 36.3172 37.2332 36.2293 36.9409L33.04 26.1924C32.9061 25.744 33.4536 25.4098 33.7913 25.734L40.3937 32.0791C40.6395 32.3153 41.0492 32.2072 41.1451 31.8789L43.1454 25.1015C43.2753 24.6632 43.8948 24.6672 44.0207 25.1055L45.983 31.967C46.0629 32.2492 46.3867 32.3833 46.6424 32.2392L51.2346 29.6752C51.6242 29.459 52.0599 29.8713 51.866 30.2716L48.8526 36.5046C48.7067 36.8068 48.9265 37.1591 49.2622 37.1591H53.6125C54.0282 37.1591 54.226 37.6715 53.9203 37.9517L52.7093 39.7192C52.3736 40.2075 52.7513 40.8681 53.3408 40.82C55.6288 40.6359 59.9692 40.2616 61.7117 39.9493L68.39 32.6776C70.1086 31.1043 68.9975 28.236 66.6695 28.236H61.2681C59.3857 28.236 58.1507 26.2645 58.972 24.5671L63.8399 14.4971C64.927 12.2493 62.479 9.93549 60.3009 11.1505L53.8583 14.7473C52.4235 15.5479 50.6151 14.8014 50.1635 13.2181L46.9122 1.85107C46.2088 -0.606887 42.7358 -0.620899 42.0124 1.83105L38.867 12.4895C38.3255 14.327 36.0334 14.9355 34.6526 13.6084L23.1104 2.51359C21.22 0.696148 18.1526 2.57164 18.8979 5.08564L25.0707 25.8902L25.0687 25.8882Z" fill="#F2F2F2"/>
<path d="M65.6144 16.1704C71.4874 17.4615 77.6242 19.3029 82.1104 23.5643C86.3568 27.6916 85.7473 33.1279 81.433 36.949C77.9359 40.1295 73.5736 42.015 69.1654 43.4922C52.4995 48.6883 32.0328 48.6523 15.4029 43.324C9.45395 41.2464 0.245746 37.2012 -4.57764e-05 29.8373C0.339666 21.2064 12.935 17.4955 19.8551 16.0544C20.2688 15.9763 20.4027 16.5748 20.015 16.6949C17.1814 17.5575 14.4038 18.5844 11.768 19.8514C-4.50423 27.7937 2.56578 36.1823 16.3561 40.3657C24.723 42.9037 33.5336 43.8184 42.2761 43.8484C54.0182 43.7504 70.1825 42.2612 79.6165 34.9253C88.9206 26.8549 74.4189 19.7493 67.5547 17.5055C67.5487 17.5055 65.4465 16.8069 65.4425 16.8069C65.0508 16.6808 65.2207 16.0844 65.6124 16.1684L65.6144 16.1704Z" fill="#F2F2F2"/>
<path d="M13.4946 72.9588C12.6033 72.9588 11.7461 72.8408 10.9188 72.6066C10.0915 72.3704 9.3221 72.0421 8.60671 71.6218C7.89331 71.1994 7.23987 70.6931 6.64837 70.0986C6.05687 69.5061 5.5493 68.8456 5.12965 68.121C4.70801 67.3944 4.38429 66.6158 4.15448 65.7831C3.92467 64.9485 3.80877 64.0858 3.80877 63.1951C3.80877 62.3044 3.91868 61.4917 4.13849 60.6731C4.35831 59.8544 4.67204 59.0798 5.0777 58.3492C5.48335 57.6187 5.97694 56.9501 6.56044 56.3416C7.14195 55.7332 7.7934 55.2067 8.51279 54.7604C9.23218 54.314 10.0175 53.9678 10.8688 53.7236C11.7201 53.4794 12.6193 53.3553 13.5685 53.3553C14.8394 53.3553 16.0684 53.5995 17.2514 54.0879C18.4344 54.5762 19.5155 55.3108 20.4946 56.2956C20.7484 56.5698 20.8763 56.8681 20.8763 57.1923C20.8763 57.3585 20.8403 57.5206 20.7664 57.6767C20.6925 57.8328 20.5986 57.9709 20.4807 58.089C20.3628 58.2071 20.2249 58.2992 20.063 58.3673C19.9011 58.4353 19.7333 58.4693 19.5574 58.4693C19.3916 58.4693 19.2317 58.4393 19.0798 58.3813C18.928 58.3232 18.7941 58.2351 18.6762 58.1171C17.9428 57.4025 17.1435 56.8701 16.2762 56.5218C15.4109 56.1735 14.5037 55.9994 13.5545 55.9994C12.6053 55.9994 11.6401 56.1855 10.7729 56.5578C9.90761 56.9301 9.15225 57.4385 8.5048 58.085C7.85934 58.7315 7.34778 59.4901 6.97209 60.3608C6.59441 61.2315 6.40657 62.1663 6.40657 63.1651C6.40657 64.1639 6.58842 65.0546 6.95011 65.9253C7.31181 66.796 7.81338 67.5586 8.45484 68.2091C9.09629 68.8596 9.85165 69.378 10.7229 69.7663C11.5942 70.1526 12.5434 70.3468 13.5705 70.3468C14.5197 70.3468 15.4169 70.1846 16.2622 69.8624C17.1075 69.5381 17.8988 69.0097 18.6322 68.2751C18.7501 68.157 18.892 68.067 19.0579 68.0029C19.2237 67.9389 19.3956 67.9068 19.5714 67.9068C19.7573 67.9068 19.9291 67.9409 20.085 68.0089C20.2409 68.077 20.3727 68.171 20.4807 68.2871C20.5886 68.4052 20.6745 68.5393 20.7384 68.6915C20.8024 68.8436 20.8344 69.0037 20.8344 69.1698C20.8344 69.5321 20.7125 69.8364 20.4667 70.0806C19.4875 71.0653 18.4044 71.7919 17.2154 72.2583C16.0264 72.7267 14.7875 72.9608 13.4946 72.9608V72.9588Z" fill="#F2F2F2"/>
<path d="M33.6435 55.3929C33.6435 55.1867 33.6815 54.9966 33.7614 54.8204C33.8393 54.6443 33.9452 54.4902 34.0771 54.3581C34.209 54.226 34.3649 54.1199 34.5467 54.0418C34.7286 53.9638 34.9204 53.9237 35.1262 53.9237C35.3321 53.9237 35.5219 53.9638 35.6978 54.0418C35.8736 54.1199 36.0295 54.226 36.1674 54.3581C36.3052 54.4902 36.4112 54.6443 36.4911 54.8204C36.569 54.9966 36.609 55.1887 36.609 55.3929C36.609 55.5971 36.569 55.7892 36.4911 55.9653C36.4132 56.1415 36.3052 56.2956 36.1674 56.4277C36.0295 56.5598 35.8736 56.6659 35.6978 56.744C35.5219 56.822 35.3301 56.8621 35.1262 56.8621C34.9224 56.8621 34.7266 56.824 34.5467 56.744C34.3669 56.6639 34.209 56.5598 34.0771 56.4277C33.9452 56.2956 33.8393 56.1415 33.7614 55.9653C33.6835 55.7892 33.6435 55.5991 33.6435 55.3929ZM33.8054 59.9065C33.8054 59.7303 33.8393 59.5602 33.9073 59.4001C33.9752 59.2379 34.0711 59.0978 34.193 58.9817C34.3149 58.8637 34.4568 58.7716 34.6187 58.7015C34.7805 58.6335 34.9544 58.5994 35.1402 58.5994C35.5019 58.5994 35.8037 58.7275 36.0435 58.9817C36.2833 59.2359 36.4032 59.5462 36.4032 59.9085V71.5938C36.4032 71.9561 36.2793 72.2623 36.0295 72.5125C35.7797 72.7627 35.4799 72.8868 35.1262 72.8868C34.7725 72.8868 34.4528 72.7627 34.195 72.5125C33.9373 72.2623 33.8054 71.9561 33.8054 71.5938V59.9085V59.9065Z" fill="#F2F2F2"/>
<path d="M41.4509 66.9621C41.5588 67.4625 41.7446 67.9248 42.0084 68.3512C42.2722 68.7775 42.5959 69.1478 42.9776 69.4601C43.3593 69.7743 43.7869 70.0185 44.2625 70.1946C44.7361 70.3708 45.2377 70.4589 45.7672 70.4589C46.2968 70.4589 46.6964 70.4128 47.0302 70.3187C47.3619 70.2267 47.6956 70.0806 48.0273 69.8844C48.3011 69.7283 48.5609 69.6482 48.8047 69.6482C48.9805 69.6482 49.1444 69.6842 49.2962 69.7583C49.4481 69.8324 49.582 69.9304 49.6999 70.0525C49.8178 70.1746 49.9097 70.3207 49.9777 70.4869C50.0456 70.653 50.0796 70.8252 50.0796 71.0013C50.0796 71.3155 49.9617 71.5918 49.7279 71.8319C49.4941 72.0721 49.1783 72.2743 48.7807 72.4424C48.385 72.6086 47.9254 72.7367 47.4018 72.8247C46.8783 72.9128 46.3328 72.9568 45.7652 72.9568C44.7761 72.9568 43.8449 72.7687 42.9696 72.3904C42.0943 72.0141 41.331 71.5017 40.6795 70.8552C40.0281 70.2087 39.5145 69.4501 39.1388 68.5774C38.7612 67.7047 38.5733 66.7739 38.5733 65.7851C38.5733 64.7964 38.7612 63.8496 39.1388 62.9769C39.5145 62.1042 40.0281 61.3456 40.6795 60.6991C41.331 60.0526 42.0923 59.5402 42.9696 59.1639C43.8449 58.7876 44.7761 58.5974 45.7652 58.5974C46.7544 58.5974 47.6676 58.7836 48.5389 59.1559C49.4101 59.5282 50.1695 60.0386 50.821 60.6851C51.4724 61.3316 51.988 62.0882 52.3696 62.9569C52.7513 63.8236 52.9472 64.7483 52.9571 65.7271C52.9571 66.0794 52.8392 66.3736 52.6054 66.6098C52.3716 66.846 52.0679 66.9621 51.6962 66.9621H41.4529H41.4509ZM50.2994 64.7864C50.2115 64.2579 50.0336 63.7675 49.7638 63.3172C49.4941 62.8668 49.1624 62.4745 48.7667 62.1403C48.371 61.808 47.9214 61.5478 47.4158 61.3616C46.9123 61.1755 46.3767 61.0834 45.8092 61.0834C45.2417 61.0834 44.6941 61.1795 44.1946 61.3696C43.695 61.5618 43.2494 61.826 42.8597 62.1643C42.468 62.5025 42.1463 62.8969 41.8905 63.3472C41.6367 63.7976 41.4649 64.278 41.377 64.7884H50.2994V64.7864Z" fill="#F2F2F2"/>
<path d="M54.0562 60.4649C53.9783 60.2988 53.9383 60.1126 53.9383 59.9065C53.9383 59.7403 53.9703 59.5782 54.0342 59.4221C54.0982 59.266 54.1861 59.1279 54.298 59.0098C54.4099 58.8917 54.5458 58.7956 54.7017 58.7235C54.8575 58.6495 55.0334 58.6134 55.2292 58.6134C55.483 58.6134 55.7148 58.6815 55.9266 58.8196C56.1364 58.9577 56.2963 59.1519 56.4042 59.4081L60.1311 68.4473L63.8299 59.4081C63.9378 59.1639 64.1017 58.9717 64.3215 58.8356C64.5413 58.6975 64.7731 58.6295 65.0189 58.6295C65.1948 58.6295 65.3606 58.6655 65.5185 58.7396C65.6744 58.8136 65.8123 58.9077 65.9302 59.0258C66.0481 59.1439 66.14 59.28 66.2099 59.4381C66.2779 59.5942 66.3118 59.7564 66.3118 59.9225C66.3218 60.0206 66.3138 60.1126 66.2899 60.2007C66.2659 60.2888 66.2339 60.3769 66.1939 60.4649L61.3221 72.0621C61.2042 72.2983 61.0483 72.4885 60.8525 72.6346C60.6566 72.7807 60.4268 72.8548 60.163 72.8548C59.8313 72.8548 59.5635 72.7767 59.3637 72.6186C59.1639 72.4625 59.018 72.2763 58.9301 72.0601L54.0582 60.4629L54.0562 60.4649Z" fill="#F2F2F2"/>
<path d="M66.8674 65.7851C66.8674 64.7964 67.0552 63.8656 67.4329 62.9929C67.8086 62.1202 68.3221 61.3596 68.9736 60.7071C69.625 60.0566 70.3824 59.5402 71.2476 59.1639C72.1129 58.7876 73.0401 58.5974 74.0293 58.5974C75.0185 58.5974 75.9617 58.7856 76.8329 59.1639C77.7042 59.5402 78.4615 60.0566 79.107 60.7071C79.7524 61.3596 80.262 62.1202 80.6337 62.9929C81.0054 63.8656 81.1912 64.7964 81.1912 65.7851C81.1912 66.7739 81.0054 67.7067 80.6337 68.5774C80.262 69.4501 79.7524 70.2087 79.107 70.8552C78.4615 71.5017 77.7022 72.0141 76.8329 72.3904C75.9617 72.7687 75.0284 72.9568 74.0293 72.9568C73.0301 72.9568 72.1149 72.7687 71.2476 72.3904C70.3824 72.0141 69.623 71.5017 68.9736 70.8552C68.3221 70.2087 67.8086 69.4501 67.4329 68.5774C67.0552 67.7047 66.8674 66.7739 66.8674 65.7851ZM69.4652 65.7851C69.4652 66.4096 69.5851 66.9981 69.8248 67.5506C70.0646 68.103 70.3904 68.5854 70.8 69.0017C71.2117 69.416 71.6933 69.7443 72.2448 69.9825C72.7963 70.2227 73.3918 70.3408 74.0273 70.3408C74.6628 70.3408 75.2722 70.2207 75.8258 69.9825C76.3773 69.7423 76.8609 69.416 77.2705 69.0017C77.6822 68.5874 78.0039 68.103 78.2397 67.5506C78.4735 66.9981 78.5914 66.4096 78.5914 65.7851C78.5914 65.1607 78.4735 64.5722 78.2397 64.0197C78.0039 63.4673 77.6822 62.9869 77.2705 62.5766C76.8589 62.1663 76.3773 61.842 75.8258 61.6018C75.2722 61.3616 74.6747 61.2435 74.0273 61.2435C73.3798 61.2435 72.7963 61.3636 72.2448 61.6018C71.6913 61.842 71.2097 62.1663 70.8 62.5766C70.3884 62.9869 70.0646 63.4673 69.8248 64.0197C69.5851 64.5722 69.4652 65.1607 69.4652 65.7851Z" fill="#F2F2F2"/>
<path d="M31.6552 58.9657C31.4254 58.7215 31.0897 58.5974 30.65 58.5974H30.5761C29.549 58.5974 28.5818 58.7956 27.6786 59.1939C26.9352 59.5202 26.2718 59.9485 25.6822 60.4669V58.9938C25.6822 58.2812 25.1047 57.7027 24.3933 57.7027C23.6819 57.7027 23.1044 58.2812 23.1044 58.9938V66.878C23.1044 66.878 23.1064 66.894 23.1064 66.902V71.4917C23.1064 71.6778 23.1424 71.85 23.2163 72.0061C23.2903 72.1622 23.3882 72.3003 23.5121 72.4184C23.636 72.5365 23.7779 72.6266 23.9397 72.6906C24.1016 72.7547 24.2714 72.7867 24.4493 72.7867C24.803 72.7867 25.1007 72.6646 25.3425 72.4184C25.5843 72.1742 25.7042 71.866 25.7042 71.4917V66.1114C25.7042 65.4349 25.8341 64.7984 26.0939 64.1999C26.3537 63.6014 26.7054 63.081 27.151 62.6347C27.5966 62.1883 28.1122 61.836 28.6997 61.5758C29.2872 61.3156 29.9127 61.1855 30.5781 61.1855H30.652C31.0237 61.1855 31.3415 61.0634 31.6052 60.8172C31.869 60.573 32.0009 60.2628 32.0009 59.8905C32.0009 59.5182 31.885 59.2099 31.6552 58.9637V58.9657Z" fill="#F2F2F2"/>
</g>
<defs>
<clipPath id="clip0_2_256">
<rect width="85" height="72.9608" fill="white"/>
</clipPath>
</defs>
</svg>
